<mxfile host="65bd71144e" scale="1.5" border="0">
    <diagram name="Page-1" id="5f0bae14-7c28-e335-631c-24af17079c00">
        <mxGraphModel dx="320" dy="228" grid="0" gridSize="10" guides="1" tooltips="1" connect="1" arrows="1" fold="1" page="1" pageScale="1" pageWidth="1100" pageHeight="850" background="none" math="0" shadow="0">
            <root>
                <mxCell id="0"/>
                <mxCell id="1" parent="0"/>
                <mxCell id="449" value="" style="group" vertex="1" connectable="0" parent="1">
                    <mxGeometry x="801" y="561" width="233.62" height="152" as="geometry"/>
                </mxCell>
                <mxCell id="335" value="" style="group" parent="449" vertex="1" connectable="0">
                    <mxGeometry width="233.62" height="152" as="geometry"/>
                </mxCell>
                <mxCell id="326" value="" style="rounded=1;whiteSpace=wrap;html=1;arcSize=3;fillColor=none;container=0;fontColor=default;" parent="335" vertex="1">
                    <mxGeometry y="3.4545454545454546" width="222.65348506401153" height="148.54545454545456" as="geometry"/>
                </mxCell>
                <mxCell id="327" value="&lt;span style=&quot;font-weight: normal;&quot;&gt;&lt;font style=&quot;font-size: 14px;&quot;&gt;&amp;nbsp;o o x&lt;/font&gt;&lt;/span&gt;" style="text;html=1;strokeColor=none;fillColor=none;align=right;verticalAlign=middle;whiteSpace=wrap;rounded=0;fontSize=10;container=0;fontStyle=1;fontColor=default;" parent="335" vertex="1">
                    <mxGeometry x="176.3797720797721" y="1.728495575221239" width="41.519132763532774" height="15.08566371681416" as="geometry"/>
                </mxCell>
                <mxCell id="328" value="&lt;font style=&quot;font-size: 16px;&quot;&gt;ac&lt;/font&gt;" style="text;html=1;strokeColor=none;fillColor=none;align=left;verticalAlign=middle;whiteSpace=wrap;rounded=0;fontSize=12;container=0;fontColor=default;" parent="335" vertex="1">
                    <mxGeometry x="4.984779516358468" y="-1.345132743362832" width="99.69559032716934" height="22.454545454545457" as="geometry"/>
                </mxCell>
                <mxCell id="334" value="" style="endArrow=none;html=1;fontSize=14;fontColor=default;curved=1;entryX=0.002;entryY=0.131;entryDx=0;entryDy=0;entryPerimeter=0;" parent="335" edge="1">
                    <mxGeometry width="50" height="50" relative="1" as="geometry">
                        <mxPoint x="222.65348506401153" y="16.783588093322606" as="sourcePoint"/>
                        <mxPoint x="0.44530697012807147" y="17.243042638777283" as="targetPoint"/>
                    </mxGeometry>
                </mxCell>
                <mxCell id="418" value="" style="html=1;whiteSpace=wrap;shape=isoCube2;backgroundOutline=1;isoAngle=11.574777930673957;fontSize=11;container=0;fontColor=default;fillColor=none;" parent="449" vertex="1">
                    <mxGeometry x="27.28894586894587" y="86.08849557522124" width="60.834381766381775" height="61.87610619469027" as="geometry"/>
                </mxCell>
                <mxCell id="421" value="" style="endArrow=none;html=1;fontColor=#000000;" parent="449" edge="1">
                    <mxGeometry width="50" height="50" relative="1" as="geometry">
                        <mxPoint x="86.59367843602638" y="63.9460515260303" as="sourcePoint"/>
                        <mxPoint x="86.59367843602638" y="63.9460515260303" as="targetPoint"/>
                        <Array as="points">
                            <mxPoint x="88.76690898835956" y="66.96555110592193"/>
                            <mxPoint x="90.26100499308869" y="65.86755125868861"/>
                            <mxPoint x="91.21179335973439" y="62.024551793372076"/>
                            <mxPoint x="90.94013954069273" y="58.18155232805562"/>
                            <mxPoint x="90.80431263117198" y="54.20130288183496"/>
                            <mxPoint x="91.61927408829692" y="48.84855362657269"/>
                            <mxPoint x="92.70588936446352" y="45.691804065777"/>
                            <mxPoint x="93.24919700254681" y="42.9468044476938"/>
                            <mxPoint x="93.65667773110921" y="41.16255469593971"/>
                            <mxPoint x="93.92833155015086" y="40.75080475322723"/>
                            <mxPoint x="94.06415845967175" y="41.299804676843856"/>
                            <mxPoint x="94.47163918823415" y="43.633054352214565"/>
                            <mxPoint x="94.8791199167967" y="45.005554161256164"/>
                            <mxPoint x="95.69408137392165" y="45.417304103968654"/>
                            <mxPoint x="96.91652355960913" y="45.417304103968654"/>
                            <mxPoint x="98.00313883577572" y="44.31930425673541"/>
                            <mxPoint x="99.76888865954635" y="40.2018048296106"/>
                            <mxPoint x="101.80629230235878" y="34.71180559344412"/>
                            <mxPoint x="103.16456139756701" y="31.966805975360916"/>
                            <mxPoint x="105.4736188594211" y="29.221806357277718"/>
                            <mxPoint x="108.19015704983757" y="26.3395567582903"/>
                            <mxPoint x="108.86929159744162" y="25.516056872865324"/>
                            <mxPoint x="109.54842614504581" y="24.829806968344563"/>
                            <mxPoint x="109.54842614504581" y="25.516056872865324"/>
                            <mxPoint x="109.41259923552506" y="27.163056643715276"/>
                            <mxPoint x="108.86929159744162" y="28.67280643366109"/>
                            <mxPoint x="109.0051185069625" y="29.35905633818185"/>
                            <mxPoint x="109.82007996408745" y="30.731556147223454"/>
                            <mxPoint x="111.1783490592957" y="31.280556070840078"/>
                            <mxPoint x="112.67244506402483" y="31.14330608993594"/>
                            <mxPoint x="114.03071415923307" y="29.908056261798478"/>
                            <mxPoint x="120.0070981781493" y="24.418057025632073"/>
                            <mxPoint x="123.13111709712832" y="22.771057254782125"/>
                            <mxPoint x="128.56419347796145" y="21.535807426644734"/>
                            <mxPoint x="130.32994330173207" y="20.849557522123895"/>
                            <mxPoint x="131.41655857789866" y="20.849557522123895"/>
                            <mxPoint x="131.00907784933628" y="21.535807426644734"/>
                            <mxPoint x="129.92246257316967" y="23.320057178398823"/>
                            <mxPoint x="129.10750111604472" y="24.006307082919587"/>
                            <mxPoint x="128.97167420652383" y="26.3395567582903"/>
                            <mxPoint x="129.37915493508638" y="27.7120565673319"/>
                            <mxPoint x="130.19411639221133" y="28.67280643366109"/>
                            <mxPoint x="131.2807316683779" y="29.221806357277718"/>
                            <mxPoint x="133.31813531119016" y="29.221806357277718"/>
                            <mxPoint x="139.02286551106494" y="28.535556452756875"/>
                            <mxPoint x="141.73940370148142" y="28.2610564909486"/>
                            <mxPoint x="142.69019206812726" y="28.2610564909486"/>
                            <mxPoint x="146.08586480614775" y="29.496306319085992"/>
                            <mxPoint x="150.16067209177262" y="31.55505603264843"/>
                            <mxPoint x="152.3339026441058" y="32.79030586078589"/>
                            <mxPoint x="153.2846910107515" y="32.653055879881684"/>
                            <mxPoint x="154.0996524678764" y="33.33930578440252"/>
                            <mxPoint x="153.4205179202724" y="33.613805746210865"/>
                            <mxPoint x="151.51894118698084" y="34.300055650731636"/>
                            <mxPoint x="150.56815282033503" y="34.57455561253998"/>
                            <mxPoint x="150.16067209177262" y="34.849055574348256"/>
                            <mxPoint x="149.88901827273097" y="35.672555459773235"/>
                            <mxPoint x="149.2098837251268" y="37.45680521152732"/>
                            <mxPoint x="149.2098837251268" y="38.14305511604816"/>
                            <mxPoint x="149.48153754416845" y="39.51555492508976"/>
                            <mxPoint x="150.0248451822517" y="41.025304715035496"/>
                            <mxPoint x="151.38311427745995" y="42.12330456226883"/>
                            <mxPoint x="159.39690193918878" y="47.33880383662696"/>
                            <mxPoint x="161.29847867248031" y="48.84855362657269"/>
                            <mxPoint x="162.9284015867302" y="50.77005335923092"/>
                            <mxPoint x="168.2256510580424" y="59.69130211800136"/>
                            <mxPoint x="168.90478560564645" y="60.10305206071385"/>
                            <mxPoint x="169.17643942468808" y="60.92655194613882"/>
                            <mxPoint x="169.312266334209" y="61.47555186975545"/>
                            <mxPoint x="166.86738196283417" y="60.92655194613882"/>
                            <mxPoint x="166.05242050570908" y="60.240302041618065"/>
                            <mxPoint x="165.37328595810504" y="59.96580207980971"/>
                            <mxPoint x="164.69415141050084" y="60.240302041618065"/>
                            <mxPoint x="163.20005540577185" y="61.75005183156381"/>
                            <mxPoint x="162.52092085816767" y="63.25980162150954"/>
                            <mxPoint x="162.38509394864693" y="65.04405137326363"/>
                            <mxPoint x="162.7925746772093" y="66.96555110592193"/>
                            <mxPoint x="164.82997832002175" y="71.63205045666336"/>
                            <mxPoint x="167.81817032947987" y="77.39654965463819"/>
                            <mxPoint x="169.17643942468808" y="81.37679910085879"/>
                            <mxPoint x="169.99140088181304" y="92.49404755409573"/>
                            <mxPoint x="170.12722779133395" y="94.14104732494567"/>
                            <mxPoint x="170.2630547008547" y="95.51354713398734"/>
                            <mxPoint x="168.36147796756313" y="93.454797420425"/>
                            <mxPoint x="167.68234341995912" y="91.80779764957505"/>
                            <mxPoint x="166.5957281437925" y="91.5332976877666"/>
                            <mxPoint x="164.55832450098006" y="91.6705476686709"/>
                            <mxPoint x="162.7925746772093" y="93.18029745861656"/>
                            <mxPoint x="162.11344012960524" y="95.10179719127478"/>
                            <mxPoint x="161.97761322008435" y="108.27779535807426"/>
                            <mxPoint x="161.29847867248031" y="111.29729493796587"/>
                            <mxPoint x="157.35949829637636" y="119.80679375402377"/>
                            <mxPoint x="157.08784447733473" y="121.04204358216114"/>
                            <mxPoint x="156.40870992973052" y="121.86554346758628"/>
                            <mxPoint x="156.00122920116812" y="119.66954377311963"/>
                            <mxPoint x="155.86540229164723" y="117.47354407865296"/>
                            <mxPoint x="154.64296010595973" y="116.23829425051558"/>
                            <mxPoint x="152.60555646314745" y="115.55204434599473"/>
                            <mxPoint x="150.83980663937666" y="115.68929432689903"/>
                            <mxPoint x="149.61736445368933" y="116.92454415503643"/>
                            <mxPoint x="145.40673025854372" y="124.88504304747775"/>
                            <mxPoint x="144.59176880141877" y="126.25754285651928"/>
                            <mxPoint x="143.23349970621055" y="127.4927926846568"/>
                            <mxPoint x="141.8752306110023" y="128.45354255098593"/>
                            <mxPoint x="137.5287695063358" y="131.061292188165"/>
                            <mxPoint x="135.62719277304427" y="132.15929203539824"/>
                            <mxPoint x="135.3555389540026" y="131.74754209268585"/>
                            <mxPoint x="135.62719277304427" y="130.1005423218359"/>
                            <mxPoint x="136.0346735016068" y="128.59079253189006"/>
                            <mxPoint x="135.08388513496098" y="126.66929279923184"/>
                            <mxPoint x="134.1330967683151" y="125.70854293290273"/>
                            <mxPoint x="133.31813531119016" y="125.02229302838188"/>
                            <mxPoint x="131.14490475885702" y="125.15954300928603"/>
                            <mxPoint x="125.71182837802405" y="127.76729264646508"/>
                            <mxPoint x="124.48938619233657" y="128.45354255098593"/>
                            <mxPoint x="122.99529018760758" y="128.59079253189006"/>
                            <mxPoint x="121.22954036383679" y="128.72804251279422"/>
                            <mxPoint x="120.41457890671185" y="128.59079253189006"/>
                            <mxPoint x="116.4755985306079" y="127.90454262736924"/>
                            <mxPoint x="113.62323343067051" y="127.63004266556096"/>
                            <mxPoint x="114.57402179731636" y="126.53204281832771"/>
                            <mxPoint x="115.66063707348295" y="125.57129295199859"/>
                            <mxPoint x="115.66063707348295" y="123.7870432002445"/>
                            <mxPoint x="115.3889832544413" y="122.96354331481953"/>
                            <mxPoint x="114.84567561635801" y="121.45379352487372"/>
                            <mxPoint x="113.89488724971217" y="120.49304365854461"/>
                            <mxPoint x="109.41259923552506" y="119.12054384950291"/>
                            <mxPoint x="105.60944576894184" y="118.1597939831738"/>
                            <mxPoint x="103.7078690356503" y="116.92454415503643"/>
                            <mxPoint x="98.41061956433812" y="112.39529478519913"/>
                            <mxPoint x="97.45983119769242" y="111.70904488067829"/>
                            <mxPoint x="97.18817737865078" y="111.02279497615746"/>
                            <mxPoint x="98.81810029290065" y="110.88554499525331"/>
                            <mxPoint x="99.6330617500256" y="111.02279497615746"/>
                            <mxPoint x="100.1763693881089" y="108.82679528169095"/>
                            <mxPoint x="99.6330617500256" y="106.08179566360775"/>
                            <mxPoint x="98.00313883577572" y="104.29754591185366"/>
                            <mxPoint x="94.7432930072758" y="101.00354637015376"/>
                            <mxPoint x="92.16258172638022" y="97.98404679026228"/>
                            <mxPoint x="90.26100499308869" y="94.00379734404153"/>
                            <mxPoint x="88.08777444075535" y="89.47454797420424"/>
                            <mxPoint x="87.68029371219296" y="88.65104808877926"/>
                            <mxPoint x="88.63108207883866" y="88.92554805058755"/>
                            <mxPoint x="89.71769735500538" y="89.61179795510839"/>
                            <mxPoint x="90.53265881213034" y="89.33729799330011"/>
                            <mxPoint x="91.48344717877602" y="88.10204816516273"/>
                            <mxPoint x="91.48344717877602" y="85.6315485088878"/>
                            <mxPoint x="90.66848572165108" y="83.29829883351701"/>
                            <mxPoint x="88.63108207883866" y="78.76904946367972"/>
                            <mxPoint x="87.81612062171372" y="76.02404984559652"/>
                            <mxPoint x="87.27281298363042" y="73.14180024660918"/>
                            <mxPoint x="86.72950534554712" y="67.6518010104427"/>
                        </Array>
                    </mxGeometry>
                </mxCell>
                <mxCell id="422" value="" style="endArrow=diamond;html=1;fontColor=#000000;startArrow=open;startFill=0;endSize=7;endFill=1;startSize=10;strokeWidth=2;" parent="449" edge="1">
                    <mxGeometry width="50" height="50" relative="1" as="geometry">
                        <mxPoint x="102.49994301994303" y="92.4778761061947" as="sourcePoint"/>
                        <mxPoint x="128.56419347796128" y="78.49454950187145" as="targetPoint"/>
                    </mxGeometry>
                </mxCell>
                <mxCell id="423" value="" style="curved=1;endArrow=classic;html=1;fontColor=default;startSize=10;endSize=7;strokeWidth=1;" parent="449" edge="1">
                    <mxGeometry width="50" height="50" relative="1" as="geometry">
                        <mxPoint x="121.64554847571465" y="89.68993563958172" as="sourcePoint"/>
                        <mxPoint x="116.95269864706782" y="80.20583266291236" as="targetPoint"/>
                        <Array as="points">
                            <mxPoint x="130.24910649490062" y="92.06096138374897"/>
                            <mxPoint x="134.9419563235476" y="80.20583266291236"/>
                            <mxPoint x="132.59553140922418" y="71.51207160096538"/>
                            <mxPoint x="120.8634068376068" y="68.35070394207565"/>
                        </Array>
                    </mxGeometry>
                </mxCell>
                <mxCell id="376" value="" style="endArrow=diamond;html=1;fontColor=#000000;startArrow=open;startFill=0;endSize=7;endFill=1;startSize=10;strokeWidth=2;" parent="449" edge="1">
                    <mxGeometry width="50" height="50" relative="1" as="geometry">
                        <mxPoint x="74.54541310541312" y="119.04424778761063" as="sourcePoint"/>
                        <mxPoint x="158.40900284900286" y="135.858407079646" as="targetPoint"/>
                    </mxGeometry>
                </mxCell>
                <mxCell id="424" value="" style="endArrow=none;dashed=1;html=1;fontFamily=Lucida Console;fontColor=default;startSize=10;endSize=7;entryX=0.77;entryY=0.261;entryDx=0;entryDy=0;entryPerimeter=0;exitX=0.784;exitY=0.904;exitDx=0;exitDy=0;exitPerimeter=0;strokeWidth=2;" parent="449" source="418" target="418" edge="1">
                    <mxGeometry width="50" height="50" relative="1" as="geometry">
                        <mxPoint x="-1.3311680911680912" y="104.24778761061948" as="sourcePoint"/>
                        <mxPoint x="31.948034188034192" y="70.61946902654869" as="targetPoint"/>
                    </mxGeometry>
                </mxCell>
                <mxCell id="425" value="" style="endArrow=none;dashed=1;html=1;fontFamily=Lucida Console;fontColor=default;startSize=10;endSize=7;entryX=0.765;entryY=0.266;entryDx=0;entryDy=0;entryPerimeter=0;exitX=0.105;exitY=0.14;exitDx=0;exitDy=0;exitPerimeter=0;strokeWidth=2;" parent="449" source="418" target="418" edge="1">
                    <mxGeometry width="50" height="50" relative="1" as="geometry">
                        <mxPoint x="81.63894162962964" y="148.75015929203533" as="sourcePoint"/>
                        <mxPoint x="80.78726028490024" y="108.96382300884967" as="targetPoint"/>
                    </mxGeometry>
                </mxCell>
                <mxCell id="474" value="&lt;div data-darkreader-inline-bgcolor=&quot;&quot; data-darkreader-inline-color=&quot;&quot; style=&quot;font-family: &amp;quot;Droid Sans Mono&amp;quot;, &amp;quot;monospace&amp;quot;, monospace, &amp;quot;UbuntuMono Nerd Font&amp;quot;, Consolas, &amp;quot;Courier New&amp;quot;, monospace; font-weight: normal; font-size: 14px; line-height: 19px; --darkreader-inline-color: #d7d4cf; --darkreader-inline-bgcolor: #1d2125;&quot;&gt;&lt;div style=&quot;&quot;&gt;&lt;div style=&quot;line-height: 19px;&quot;&gt;&lt;br&gt;&lt;/div&gt;&lt;/div&gt;&lt;/div&gt;" style="rounded=1;whiteSpace=wrap;html=1;fillColor=none;labelBackgroundColor=none;fontColor=default;arcSize=2;align=center;verticalAlign=top;dashed=1;dashPattern=8 8;" vertex="1" parent="1">
                    <mxGeometry x="890" y="78" width="606" height="450" as="geometry"/>
                </mxCell>
                <mxCell id="447" value="LayerToolhead.h/.cpp" style="verticalAlign=top;align=left;spacingTop=8;spacingLeft=2;spacingRight=12;shape=cube;size=10;direction=south;fontStyle=4;html=1;rounded=0;shadow=0;comic=0;labelBackgroundColor=none;strokeWidth=1;fontFamily=Verdana;fontSize=12;fillColor=none;fontColor=default;" parent="1" vertex="1">
                    <mxGeometry x="43" y="324" width="389" height="411" as="geometry"/>
                </mxCell>
                <mxCell id="310" value="&lt;div data-darkreader-inline-bgcolor=&quot;&quot; data-darkreader-inline-color=&quot;&quot; style=&quot;font-family: &amp;quot;Droid Sans Mono&amp;quot;, &amp;quot;monospace&amp;quot;, monospace, &amp;quot;UbuntuMono Nerd Font&amp;quot;, Consolas, &amp;quot;Courier New&amp;quot;, monospace; font-weight: normal; font-size: 14px; line-height: 19px; --darkreader-inline-color: #d7d4cf; --darkreader-inline-bgcolor: #1d2125;&quot;&gt;&lt;div style=&quot;&quot;&gt;&lt;div style=&quot;line-height: 19px;&quot;&gt;class HoleFeedback&lt;/div&gt;&lt;/div&gt;&lt;/div&gt;" style="rounded=1;whiteSpace=wrap;html=1;fillColor=none;labelBackgroundColor=none;fontColor=default;" parent="1" vertex="1">
                    <mxGeometry x="903.81" y="88" width="330.19" height="27" as="geometry"/>
                </mxCell>
                <mxCell id="311" value="&lt;div data-darkreader-inline-bgcolor=&quot;&quot; data-darkreader-inline-color=&quot;&quot; style=&quot;font-family: &amp;quot;Droid Sans Mono&amp;quot;, &amp;quot;monospace&amp;quot;, monospace, &amp;quot;UbuntuMono Nerd Font&amp;quot;, Consolas, &amp;quot;Courier New&amp;quot;, monospace; font-weight: normal; font-size: 14px; line-height: 19px; --darkreader-inline-color: #d7d4cf; --darkreader-inline-bgcolor: #1d2125;&quot;&gt;&lt;div style=&quot;&quot;&gt;&lt;div style=&quot;line-height: 19px;&quot;&gt;class CutChainFeedback&lt;/div&gt;&lt;/div&gt;&lt;/div&gt;" style="rounded=1;whiteSpace=wrap;html=1;fillColor=none;labelBackgroundColor=none;fontColor=default;" parent="1" vertex="1">
                    <mxGeometry x="903.81" y="125" width="330.19" height="27" as="geometry"/>
                </mxCell>
                <mxCell id="314" value="LayerModel.h/.cpp" style="verticalAlign=top;align=left;spacingTop=8;spacingLeft=2;spacingRight=12;shape=cube;size=10;direction=south;fontStyle=4;html=1;rounded=0;shadow=0;comic=0;labelBackgroundColor=none;strokeWidth=1;fontFamily=Verdana;fontSize=12;fillColor=none;fontColor=default;" parent="1" vertex="1">
                    <mxGeometry x="43" y="33" width="438" height="281" as="geometry"/>
                </mxCell>
                <mxCell id="336" value="&lt;div style=&quot;font-family: &amp;quot;Droid Sans Mono&amp;quot;, &amp;quot;monospace&amp;quot;, monospace, &amp;quot;UbuntuMono Nerd Font&amp;quot;, Consolas, &amp;quot;Courier New&amp;quot;, monospace; font-weight: normal; font-size: 14px; line-height: 19px;&quot;&gt;&lt;div style=&quot;&quot;&gt;&lt;span style=&quot;&quot;&gt;AIAC_APP&lt;/span&gt;&lt;/div&gt;&lt;/div&gt;" style="text;whiteSpace=wrap;html=1;fontColor=default;" parent="1" vertex="1">
                    <mxGeometry x="516" y="165" width="73" height="33" as="geometry"/>
                </mxCell>
                <mxCell id="338" style="edgeStyle=orthogonalEdgeStyle;rounded=0;orthogonalLoop=1;jettySize=auto;html=1;fontFamily=Helvetica;dashed=1;entryX=0;entryY=0.5;entryDx=0;entryDy=0;fontColor=default;exitX=1;exitY=0.25;exitDx=0;exitDy=0;" parent="1" source="396" target="336" edge="1">
                    <mxGeometry relative="1" as="geometry">
                        <mxPoint x="125" y="-83" as="sourcePoint"/>
                        <mxPoint x="422" y="405" as="targetPoint"/>
                        <Array as="points">
                            <mxPoint x="497" y="258"/>
                            <mxPoint x="497" y="182"/>
                            <mxPoint x="516" y="182"/>
                        </Array>
                    </mxGeometry>
                </mxCell>
                <mxCell id="340" style="edgeStyle=orthogonalEdgeStyle;rounded=0;orthogonalLoop=1;jettySize=auto;html=1;fontFamily=Helvetica;dashed=1;exitX=1;exitY=0.5;exitDx=0;exitDy=0;fontColor=default;entryX=0.5;entryY=0;entryDx=0;entryDy=0;" parent="1" source="336" target="379" edge="1">
                    <mxGeometry relative="1" as="geometry">
                        <mxPoint x="230.99999999999955" y="329.5000000000002" as="sourcePoint"/>
                        <mxPoint x="525" y="274" as="targetPoint"/>
                    </mxGeometry>
                </mxCell>
                <mxCell id="341" value="&lt;span style=&quot;font-family: &amp;quot;Droid Sans Mono&amp;quot;, &amp;quot;monospace&amp;quot;, monospace, &amp;quot;UbuntuMono Nerd Font&amp;quot;, Consolas, &amp;quot;Courier New&amp;quot;, monospace; font-size: 14px; text-align: left;&quot;&gt;GetACInfoModel()&lt;/span&gt;" style="edgeLabel;html=1;align=center;verticalAlign=middle;resizable=0;points=[];fontFamily=Helvetica;labelBackgroundColor=#FFFFFF;fontColor=#000000;" parent="340" vertex="1" connectable="0">
                    <mxGeometry x="-0.0496" y="-1" relative="1" as="geometry">
                        <mxPoint x="1" y="22" as="offset"/>
                    </mxGeometry>
                </mxCell>
                <mxCell id="344" value="&lt;div style=&quot;font-family: &amp;quot;Droid Sans Mono&amp;quot;, &amp;quot;monospace&amp;quot;, monospace, &amp;quot;UbuntuMono Nerd Font&amp;quot;, Consolas, &amp;quot;Courier New&amp;quot;, monospace; font-weight: normal; font-size: 14px; line-height: 19px;&quot;&gt;&lt;div style=&quot;&quot;&gt;&lt;span style=&quot;&quot;&gt;AIAC_APP&lt;/span&gt;&lt;/div&gt;&lt;/div&gt;" style="text;whiteSpace=wrap;html=1;fontColor=default;" parent="1" vertex="1">
                    <mxGeometry x="451" y="504" width="73" height="33" as="geometry"/>
                </mxCell>
                <mxCell id="345" style="edgeStyle=orthogonalEdgeStyle;rounded=0;orthogonalLoop=1;jettySize=auto;html=1;fontFamily=Helvetica;dashed=1;entryX=0;entryY=0.5;entryDx=0;entryDy=0;exitX=0;exitY=0;exitDx=196.5;exitDy=0;fontColor=default;exitPerimeter=0;" parent="1" source="447" target="344" edge="1">
                    <mxGeometry relative="1" as="geometry">
                        <mxPoint x="651.9999999999995" y="556.9999999999998" as="sourcePoint"/>
                        <mxPoint x="457" y="452" as="targetPoint"/>
                    </mxGeometry>
                </mxCell>
                <mxCell id="346" style="edgeStyle=orthogonalEdgeStyle;rounded=0;orthogonalLoop=1;jettySize=auto;html=1;fontFamily=Helvetica;dashed=1;exitX=1;exitY=0.5;exitDx=0;exitDy=0;fontColor=default;entryX=0.5;entryY=0;entryDx=0;entryDy=0;" parent="1" source="344" target="350" edge="1">
                    <mxGeometry relative="1" as="geometry">
                        <mxPoint x="673.9999999999995" y="614.0000000000002" as="sourcePoint"/>
                        <mxPoint x="991" y="557.5" as="targetPoint"/>
                        <Array as="points">
                            <mxPoint x="528" y="520"/>
                            <mxPoint x="533" y="520"/>
                            <mxPoint x="533" y="313"/>
                            <mxPoint x="645" y="313"/>
                        </Array>
                    </mxGeometry>
                </mxCell>
                <mxCell id="347" value="&lt;span style=&quot;font-family: &amp;quot;Droid Sans Mono&amp;quot;, &amp;quot;monospace&amp;quot;, monospace, &amp;quot;UbuntuMono Nerd Font&amp;quot;, Consolas, &amp;quot;Courier New&amp;quot;, monospace; font-size: 14px; text-align: left;&quot;&gt;GetActiveToolhead()&lt;/span&gt;" style="edgeLabel;html=1;align=center;verticalAlign=middle;resizable=0;points=[];fontFamily=Helvetica;labelBackgroundColor=#FFFFFF;fontColor=#000000;" parent="346" vertex="1" connectable="0">
                    <mxGeometry x="-0.0496" y="-1" relative="1" as="geometry">
                        <mxPoint x="-2" y="63" as="offset"/>
                    </mxGeometry>
                </mxCell>
                <mxCell id="350" value="&lt;span style=&quot;font-family: &amp;quot;Droid Sans Mono&amp;quot;, &amp;quot;monospace&amp;quot;, monospace, &amp;quot;UbuntuMono Nerd Font&amp;quot;, Consolas, &amp;quot;Courier New&amp;quot;, monospace; font-size: 14px;&quot;&gt;class ActiveToolhead&lt;/span&gt;" style="swimlane;fontStyle=0;childLayout=stackLayout;horizontal=1;startSize=30;horizontalStack=0;resizeParent=1;resizeParentMax=0;resizeLast=0;collapsible=1;marginBottom=0;whiteSpace=wrap;html=1;fontColor=default;rounded=1;arcSize=4;swimlaneLine=1;" parent="1" vertex="1">
                    <mxGeometry x="548" y="328" width="194" height="60" as="geometry">
                        <mxRectangle x="1458" y="584" width="54" height="30" as="alternateBounds"/>
                    </mxGeometry>
                </mxCell>
                <mxCell id="351" value="+ GetData() const" style="text;strokeColor=none;fillColor=none;align=left;verticalAlign=middle;spacingLeft=4;spacingRight=4;overflow=hidden;points=[[0,0.5],[1,0.5]];portConstraint=eastwest;rotatable=0;whiteSpace=wrap;html=1;fontColor=default;" parent="350" vertex="1">
                    <mxGeometry y="30" width="194" height="30" as="geometry"/>
                </mxCell>
                <mxCell id="366" style="edgeStyle=orthogonalEdgeStyle;html=1;entryX=0;entryY=0.5;entryDx=0;entryDy=0;fontSize=14;fontColor=default;startArrow=classic;startFill=1;endArrow=none;endFill=0;exitX=0.997;exitY=0.097;exitDx=0;exitDy=0;exitPerimeter=0;" parent="1" source="357" target="351" edge="1">
                    <mxGeometry relative="1" as="geometry">
                        <mxPoint x="376" y="462" as="sourcePoint"/>
                        <mxPoint x="385.5" y="422" as="targetPoint"/>
                        <Array as="points">
                            <mxPoint x="442" y="487"/>
                            <mxPoint x="442" y="373"/>
                        </Array>
                    </mxGeometry>
                </mxCell>
                <mxCell id="371" value="" style="endArrow=none;dashed=1;html=1;dashPattern=1 3;strokeWidth=2;fontSize=14;fontColor=default;exitX=0;exitY=0;exitDx=0;exitDy=0;entryX=0;entryY=0;entryDx=0;entryDy=0;" parent="1" source="373" edge="1" target="450">
                    <mxGeometry width="50" height="50" relative="1" as="geometry">
                        <mxPoint x="1326.31" y="175.5" as="sourcePoint"/>
                        <mxPoint x="1362.81" y="-24.5" as="targetPoint"/>
                    </mxGeometry>
                </mxCell>
                <mxCell id="372" value="" style="endArrow=none;dashed=1;html=1;dashPattern=1 3;strokeWidth=2;fontSize=14;fontColor=default;exitX=1;exitY=1;exitDx=0;exitDy=0;entryX=1;entryY=1.064;entryDx=0;entryDy=0;entryPerimeter=0;" parent="1" source="373" edge="1" target="459">
                    <mxGeometry width="50" height="50" relative="1" as="geometry">
                        <mxPoint x="1336.31" y="185.5" as="sourcePoint"/>
                        <mxPoint x="1439.81" y="-30.5" as="targetPoint"/>
                    </mxGeometry>
                </mxCell>
                <mxCell id="379" value="&lt;span style=&quot;font-family: &amp;quot;Droid Sans Mono&amp;quot;, &amp;quot;monospace&amp;quot;, monospace, &amp;quot;UbuntuMono Nerd Font&amp;quot;, Consolas, &amp;quot;Courier New&amp;quot;, monospace; font-size: 14px;&quot;&gt;class ACInfoModel&lt;/span&gt;" style="swimlane;fontStyle=0;childLayout=stackLayout;horizontal=1;startSize=30;horizontalStack=0;resizeParent=1;resizeParentMax=0;resizeLast=0;collapsible=1;marginBottom=0;whiteSpace=wrap;html=1;fontColor=default;rounded=1;arcSize=4;swimlaneLine=1;" parent="1" vertex="1">
                    <mxGeometry x="548" y="242" width="192" height="60" as="geometry">
                        <mxRectangle x="878" y="661" width="54" height="30" as="alternateBounds"/>
                    </mxGeometry>
                </mxCell>
                <mxCell id="383" value="+&amp;nbsp;&lt;span style=&quot;font-family: &amp;quot;Droid Sans Mono&amp;quot;, &amp;quot;monospace&amp;quot;, monospace, &amp;quot;UbuntuMono Nerd Font&amp;quot;, Consolas, &amp;quot;Courier New&amp;quot;, monospace; font-size: 14px; text-align: center;&quot;&gt;GetTimberInfo()&lt;/span&gt;" style="text;strokeColor=none;fillColor=none;align=left;verticalAlign=middle;spacingLeft=4;spacingRight=4;overflow=hidden;points=[[0,0.5],[1,0.5]];portConstraint=eastwest;rotatable=0;whiteSpace=wrap;html=1;fontColor=default;" parent="379" vertex="1">
                    <mxGeometry y="30" width="192" height="30" as="geometry"/>
                </mxCell>
                <mxCell id="396" value="&lt;span style=&quot;font-family: &amp;quot;Droid Sans Mono&amp;quot;, &amp;quot;monospace&amp;quot;, monospace, &amp;quot;UbuntuMono Nerd Font&amp;quot;, Consolas, &amp;quot;Courier New&amp;quot;, monospace; font-size: 14px;&quot;&gt;class ACInfoModel&lt;/span&gt;" style="swimlane;fontStyle=0;childLayout=stackLayout;horizontal=1;startSize=30;horizontalStack=0;resizeParent=1;resizeParentMax=0;resizeLast=0;collapsible=1;marginBottom=0;whiteSpace=wrap;html=1;fontColor=default;rounded=1;arcSize=4;swimlaneLine=1;" parent="1" vertex="1">
                    <mxGeometry x="253" y="242.5" width="201" height="60" as="geometry">
                        <mxRectangle x="878" y="661" width="54" height="30" as="alternateBounds"/>
                    </mxGeometry>
                </mxCell>
                <mxCell id="397" value="&lt;div style=&quot;text-align: center;&quot;&gt;&lt;span style=&quot;background-color: initial;&quot;&gt;+ &lt;font face=&quot;Droid Sans Mono, monospace, monospace, UbuntuMono Nerd Font, Consolas, Courier New, monospace&quot;&gt;&lt;span style=&quot;font-size: 14px;&quot;&gt;GetCurrentComponent()&lt;/span&gt;&lt;/font&gt;&lt;/span&gt;&lt;/div&gt;" style="text;strokeColor=none;fillColor=none;align=left;verticalAlign=middle;spacingLeft=4;spacingRight=4;overflow=hidden;points=[[0,0.5],[1,0.5]];portConstraint=eastwest;rotatable=0;whiteSpace=wrap;html=1;fontColor=default;" parent="396" vertex="1">
                    <mxGeometry y="30" width="201" height="30" as="geometry"/>
                </mxCell>
                <mxCell id="400" style="edgeStyle=orthogonalEdgeStyle;html=1;entryX=0;entryY=0.5;entryDx=0;entryDy=0;fontSize=14;fontColor=default;startArrow=classic;startFill=1;endArrow=none;endFill=0;exitX=1;exitY=0.5;exitDx=0;exitDy=0;" parent="1" source="397" target="383" edge="1">
                    <mxGeometry relative="1" as="geometry">
                        <mxPoint x="407.9460234375001" y="484.6400000000001" as="sourcePoint"/>
                        <mxPoint x="558" y="359" as="targetPoint"/>
                        <Array as="points">
                            <mxPoint x="518" y="288"/>
                            <mxPoint x="537" y="288"/>
                        </Array>
                    </mxGeometry>
                </mxCell>
                <mxCell id="413" value="" style="group" parent="1" vertex="1" connectable="0">
                    <mxGeometry x="251.4000000000001" y="44.5" width="199.6" height="184.5" as="geometry"/>
                </mxCell>
                <mxCell id="405" value="&lt;div data-darkreader-inline-bgcolor=&quot;&quot; data-darkreader-inline-color=&quot;&quot; style=&quot;font-family: &amp;quot;Droid Sans Mono&amp;quot;, &amp;quot;monospace&amp;quot;, monospace, &amp;quot;UbuntuMono Nerd Font&amp;quot;, Consolas, &amp;quot;Courier New&amp;quot;, monospace; font-weight: normal; font-size: 14px; line-height: 19px; --darkreader-inline-color: #d7d4cf; --darkreader-inline-bgcolor: #1d2125;&quot;&gt;&lt;div style=&quot;&quot;&gt;&lt;div style=&quot;line-height: 19px;&quot;&gt;&lt;br&gt;&lt;/div&gt;&lt;/div&gt;&lt;/div&gt;" style="rounded=1;whiteSpace=wrap;html=1;fillColor=none;labelBackgroundColor=none;fontColor=default;arcSize=2;align=center;verticalAlign=top;dashed=1;dashPattern=8 8;" parent="413" vertex="1">
                    <mxGeometry y="42.38513513513514" width="199.6" height="142.11486486486487" as="geometry"/>
                </mxCell>
                <mxCell id="407" value="&lt;span style=&quot;font-family: &amp;quot;Droid Sans Mono&amp;quot;, &amp;quot;monospace&amp;quot;, monospace, &amp;quot;UbuntuMono Nerd Font&amp;quot;, Consolas, &amp;quot;Courier New&amp;quot;, monospace; font-size: 14px;&quot;&gt;struct Cut&lt;/span&gt;" style="swimlane;fontStyle=0;childLayout=stackLayout;horizontal=1;startSize=30;horizontalStack=0;resizeParent=1;resizeParentMax=0;resizeLast=0;collapsible=1;marginBottom=0;whiteSpace=wrap;html=1;fontColor=default;rounded=1;arcSize=4;swimlaneLine=1;" parent="413" vertex="1">
                    <mxGeometry x="7.077163461538462" y="97.23648648648648" width="187.93800747863247" height="67.39864864864865" as="geometry">
                        <mxRectangle x="878" y="661" width="54" height="30" as="alternateBounds"/>
                    </mxGeometry>
                </mxCell>
                <mxCell id="408" value="+ &lt;span style=&quot;font-family: &amp;quot;Droid Sans Mono&amp;quot;, &amp;quot;monospace&amp;quot;, monospace, &amp;quot;UbuntuMono Nerd Font&amp;quot;, Consolas, &amp;quot;Courier New&amp;quot;, monospace; font-size: 14px;&quot;&gt;AIAC::Face HighlightFace()&lt;/span&gt;" style="text;strokeColor=none;fillColor=none;align=center;verticalAlign=middle;spacingLeft=4;spacingRight=4;overflow=hidden;points=[[0,0.5],[1,0.5]];portConstraint=eastwest;rotatable=0;whiteSpace=wrap;html=1;fontColor=default;" parent="407" vertex="1">
                    <mxGeometry y="30" width="187.93800747863247" height="37.39864864864865" as="geometry"/>
                </mxCell>
                <mxCell id="411" value="&lt;div data-darkreader-inline-bgcolor=&quot;&quot; data-darkreader-inline-color=&quot;&quot; style=&quot;font-family: &amp;quot;Droid Sans Mono&amp;quot;, &amp;quot;monospace&amp;quot;, monospace, &amp;quot;UbuntuMono Nerd Font&amp;quot;, Consolas, &amp;quot;Courier New&amp;quot;, monospace; font-weight: normal; font-size: 14px; line-height: 19px; --darkreader-inline-color: #d7d4cf; --darkreader-inline-bgcolor: #1d2125;&quot;&gt;&lt;div style=&quot;&quot;&gt;&lt;div style=&quot;line-height: 19px;&quot;&gt;class Hole&lt;/div&gt;&lt;/div&gt;&lt;/div&gt;" style="rounded=1;whiteSpace=wrap;html=1;fillColor=none;labelBackgroundColor=none;fontColor=default;" parent="413" vertex="1">
                    <mxGeometry x="6.290811965811964" y="53.604729729729726" width="188.72435897435892" height="34.9054054054054" as="geometry"/>
                </mxCell>
                <mxCell id="412" value="&lt;font style=&quot;font-size: 14px;&quot;&gt;class Component&lt;/font&gt;" style="text;html=1;strokeColor=none;fillColor=none;align=center;verticalAlign=middle;whiteSpace=wrap;rounded=0;fontSize=13;fontColor=default;" parent="413" vertex="1">
                    <mxGeometry x="55.0446047008547" width="91.2167735042735" height="41.138513513513516" as="geometry"/>
                </mxCell>
                <mxCell id="427" style="edgeStyle=orthogonalEdgeStyle;html=1;entryX=0;entryY=0.5;entryDx=0;entryDy=0;fontSize=14;fontColor=default;startArrow=classic;startFill=1;endArrow=none;endFill=0;exitX=1;exitY=0.135;exitDx=0;exitDy=0;exitPerimeter=0;" parent="1" source="401" target="408" edge="1">
                    <mxGeometry relative="1" as="geometry">
                        <mxPoint x="277" y="158.5" as="sourcePoint"/>
                        <mxPoint x="328" y="225" as="targetPoint"/>
                        <Array as="points">
                            <mxPoint x="219" y="133"/>
                            <mxPoint x="233" y="134"/>
                            <mxPoint x="233" y="190"/>
                        </Array>
                    </mxGeometry>
                </mxCell>
                <mxCell id="445" value="" style="group" parent="1" vertex="1" connectable="0">
                    <mxGeometry x="56" y="350" width="354" height="370" as="geometry"/>
                </mxCell>
                <mxCell id="443" value="" style="group" parent="445" vertex="1" connectable="0">
                    <mxGeometry x="135" y="233" width="90.24" height="119" as="geometry"/>
                </mxCell>
                <mxCell id="429" value="" style="group" parent="443" vertex="1" connectable="0">
                    <mxGeometry width="90.24" height="118.99999999999999" as="geometry"/>
                </mxCell>
                <mxCell id="317" value="" style="endArrow=none;html=1;fontColor=#000000;" parent="429" edge="1">
                    <mxGeometry width="50" height="50" relative="1" as="geometry">
                        <mxPoint x="-0.14673170731698953" y="46.0739827373613" as="sourcePoint"/>
                        <mxPoint x="-0.14673170731698953" y="46.0739827373613" as="targetPoint"/>
                        <Array as="points">
                            <mxPoint x="2.200975609756151" y="49.3020961775586"/>
                            <mxPoint x="3.815024390244017" y="48.12823674475955"/>
                            <mxPoint x="4.842146341463434" y="44.01972872996297"/>
                            <mxPoint x="4.548682926829292" y="39.91122071516647"/>
                            <mxPoint x="4.401951219512302" y="35.655980271270046"/>
                            <mxPoint x="5.28234146341473" y="29.933415536374856"/>
                            <mxPoint x="6.456195121951301" y="26.5585696670777"/>
                            <mxPoint x="7.043121951219585" y="23.623921085080177"/>
                            <mxPoint x="7.483317073170718" y="21.71639950678178"/>
                            <mxPoint x="7.776780487804861" y="21.276202219482144"/>
                            <mxPoint x="7.923512195122014" y="21.863131935881633"/>
                            <mxPoint x="8.363707317073144" y="24.357583230579515"/>
                            <mxPoint x="8.80390243902444" y="25.82490752157828"/>
                            <mxPoint x="9.684292682926868" y="26.265104808877915"/>
                            <mxPoint x="11.004878048780592" y="26.265104808877915"/>
                            <mxPoint x="12.178731707317162" y="25.091245376078938"/>
                            <mxPoint x="14.086243902439008" y="20.68927250308266"/>
                            <mxPoint x="16.287219512195158" y="14.819975339087534"/>
                            <mxPoint x="17.754536585365873" y="11.885326757090013"/>
                            <mxPoint x="20.24897560975617" y="8.950678175092495"/>
                            <mxPoint x="23.183609756097592" y="5.869297163995041"/>
                            <mxPoint x="23.917268292682866" y="4.988902589395768"/>
                            <mxPoint x="24.650926829268304" y="4.2552404438964295"/>
                            <mxPoint x="24.650926829268304" y="4.988902589395768"/>
                            <mxPoint x="24.504195121951316" y="6.749691738594313"/>
                            <mxPoint x="23.917268292682866" y="8.363748458693006"/>
                            <mxPoint x="24.064000000000018" y="9.097410604192346"/>
                            <mxPoint x="24.94439024390245" y="10.564734895191107"/>
                            <mxPoint x="26.411707317073162" y="11.151664611590594"/>
                            <mxPoint x="28.02575609756103" y="11.004932182490743"/>
                            <mxPoint x="29.49307317073174" y="9.684340320591835"/>
                            <mxPoint x="35.94926829268287" y="3.815043156596793"/>
                            <mxPoint x="39.324097560975595" y="2.054254007398248"/>
                            <mxPoint x="45.19336585365862" y="0.7336621454994209"/>
                            <mxPoint x="47.100878048780466"/>
                            <mxPoint x="48.27473170731703"/>
                            <mxPoint x="47.8345365853659" y="0.7336621454994209"/>
                            <mxPoint x="46.660682926829324" y="2.6411837237978175"/>
                            <mxPoint x="45.7802926829269" y="3.3748458692971566"/>
                            <mxPoint x="45.63356097560975" y="5.869297163995041"/>
                            <mxPoint x="46.073756097561045" y="7.3366214549938"/>
                            <mxPoint x="46.95414634146347" y="8.363748458693006"/>
                            <mxPoint x="48.128000000000036" y="8.950678175092495"/>
                            <mxPoint x="50.32897560975602" y="8.950678175092495"/>
                            <mxPoint x="56.49170731707311" y="8.217016029593074"/>
                            <mxPoint x="59.42634146341453" y="7.92355117139337"/>
                            <mxPoint x="60.45346341463428" y="7.92355117139337"/>
                            <mxPoint x="64.1217560975608" y="9.244143033292197"/>
                            <mxPoint x="68.5237073170731" y="11.445129469790379"/>
                            <mxPoint x="70.87141463414625" y="12.765721331689287"/>
                            <mxPoint x="71.89853658536568" y="12.618988902589354"/>
                            <mxPoint x="72.77892682926826" y="13.352651048088775"/>
                            <mxPoint x="72.04526829268282" y="13.646115906288559"/>
                            <mxPoint x="69.991024390244" y="14.379778051787898"/>
                            <mxPoint x="68.96390243902424" y="14.673242909987684"/>
                            <mxPoint x="68.5237073170731" y="14.966707768187387"/>
                            <mxPoint x="68.23024390243913" y="15.847102342786657"/>
                            <mxPoint x="67.49658536585369" y="17.754623921085056"/>
                            <mxPoint x="67.49658536585369" y="18.48828606658447"/>
                            <mxPoint x="67.79004878048767" y="19.955610357583236"/>
                            <mxPoint x="68.37697560975597" y="21.56966707768185"/>
                            <mxPoint x="69.84429268292683" y="22.7435265104809"/>
                            <mxPoint x="78.5014634146343" y="28.31935881627624"/>
                            <mxPoint x="80.55570731707313" y="29.933415536374856"/>
                            <mxPoint x="82.316487804878" y="31.987669543773105"/>
                            <mxPoint x="88.039024390244" y="41.52527743526508"/>
                            <mxPoint x="88.7726829268291" y="41.96547472256472"/>
                            <mxPoint x="89.06614634146342" y="42.84586929716399"/>
                            <mxPoint x="89.21287804878058" y="43.432799013563475"/>
                            <mxPoint x="86.57170731707312" y="42.84586929716399"/>
                            <mxPoint x="85.69131707317054" y="42.112207151664656"/>
                            <mxPoint x="84.95765853658543" y="41.81874229346487"/>
                            <mxPoint x="84.224" y="42.112207151664656"/>
                            <mxPoint x="82.60995121951228" y="43.726263871763265"/>
                            <mxPoint x="81.87629268292685" y="45.340320591861875"/>
                            <mxPoint x="81.72956097560969" y="47.247842170160276"/>
                            <mxPoint x="82.16975609756082" y="49.3020961775586"/>
                            <mxPoint x="84.37073170731713" y="54.290998766954374"/>
                            <mxPoint x="87.59882926829255" y="60.4537607891492"/>
                            <mxPoint x="89.06614634146342" y="64.70900123304563"/>
                            <mxPoint x="89.94653658536569" y="76.59432799013555"/>
                            <mxPoint x="90.09326829268285" y="78.35511713933411"/>
                            <mxPoint x="90.24" y="79.82244143033294"/>
                            <mxPoint x="88.18575609756084" y="77.62145499383485"/>
                            <mxPoint x="87.45209756097573" y="75.8606658446363"/>
                            <mxPoint x="86.27824390243914" y="75.56720098643642"/>
                            <mxPoint x="84.07726829268285" y="75.71393341553646"/>
                            <mxPoint x="82.16975609756082" y="77.32799013563496"/>
                            <mxPoint x="81.43609756097571" y="79.38224414303323"/>
                            <mxPoint x="81.28936585365855" y="93.46855733662143"/>
                            <mxPoint x="80.55570731707313" y="96.69667077681882"/>
                            <mxPoint x="76.30048780487797" y="105.79408138101108"/>
                            <mxPoint x="76.00702439024398" y="107.1146732429099"/>
                            <mxPoint x="75.27336585365855" y="107.99506781750934"/>
                            <mxPoint x="74.83317073170744" y="105.64734895191121"/>
                            <mxPoint x="74.68643902439028" y="103.29963008631312"/>
                            <mxPoint x="73.36585365853657" y="101.97903822441428"/>
                            <mxPoint x="71.16487804878057" y="101.24537607891486"/>
                            <mxPoint x="69.25736585365856" y="101.39210850801489"/>
                            <mxPoint x="67.93678048780482" y="102.7127003699137"/>
                            <mxPoint x="63.3880975609757" y="111.22318125770657"/>
                            <mxPoint x="62.507707317073105" y="112.69050554870525"/>
                            <mxPoint x="61.04039024390256" y="114.01109741060424"/>
                            <mxPoint x="59.57307317073168" y="115.03822441430336"/>
                            <mxPoint x="54.877658536585315" y="117.82614056720102"/>
                            <mxPoint x="52.823414634146324" y="118.99999999999999"/>
                            <mxPoint x="52.529951219512185" y="118.55980271270045"/>
                            <mxPoint x="52.823414634146324" y="116.7990135635019"/>
                            <mxPoint x="53.26360975609762" y="115.1849568434032"/>
                            <mxPoint x="52.23648780487803" y="113.13070283600494"/>
                            <mxPoint x="51.20936585365846" y="112.10357583230582"/>
                            <mxPoint x="50.32897560975602" y="111.36991368680641"/>
                            <mxPoint x="47.98126829268289" y="111.51664611590627"/>
                            <mxPoint x="42.11200000000003" y="114.30456226880393"/>
                            <mxPoint x="40.791414634146314" y="115.03822441430336"/>
                            <mxPoint x="39.17736585365861" y="115.1849568434032"/>
                            <mxPoint x="37.2698536585366" y="115.33168927250306"/>
                            <mxPoint x="36.38946341463417" y="115.1849568434032"/>
                            <mxPoint x="32.134243902439025" y="114.45129469790378"/>
                            <mxPoint x="29.052878048780446" y="114.15782983970406"/>
                            <mxPoint x="30.080000000000023" y="112.98397040690512"/>
                            <mxPoint x="31.253853658536595" y="111.95684340320598"/>
                            <mxPoint x="31.253853658536595" y="110.04932182490758"/>
                            <mxPoint x="30.960390243902456" y="109.16892725030831"/>
                            <mxPoint x="30.37346341463417" y="107.55487053020963"/>
                            <mxPoint x="29.346341463414586" y="106.5277435265105"/>
                            <mxPoint x="24.504195121951316" y="105.06041923551166"/>
                            <mxPoint x="20.395707317073157" y="104.03329223181254"/>
                            <mxPoint x="18.341463414634156" y="102.7127003699137"/>
                            <mxPoint x="12.618926829268295" y="97.87053020961778"/>
                            <mxPoint x="11.591804878048878" y="97.13686806411836"/>
                            <mxPoint x="11.298341463414737" y="96.40320591861894"/>
                            <mxPoint x="13.05912195121959" y="96.2564734895191"/>
                            <mxPoint x="13.93951219512202" y="96.40320591861894"/>
                            <mxPoint x="14.526439024390303" y="94.05548705302098"/>
                            <mxPoint x="13.93951219512202" y="91.12083847102348"/>
                            <mxPoint x="12.178731707317162" y="89.21331689272508"/>
                            <mxPoint x="8.65717073170729" y="85.69173859432799"/>
                            <mxPoint x="5.8692682926830155" y="82.46362515413075"/>
                            <mxPoint x="3.815024390244017" y="78.20838471023426"/>
                            <mxPoint x="1.467317073170713" y="73.36621454993833"/>
                            <mxPoint x="1.0271219512195808" y="72.48581997533906"/>
                            <mxPoint x="2.0542439024389982" y="72.77928483353877"/>
                            <mxPoint x="3.228097560975732" y="73.51294697903818"/>
                            <mxPoint x="4.10848780487816" y="73.21948212083848"/>
                            <mxPoint x="5.135609756097577" y="71.89889025893964"/>
                            <mxPoint x="5.135609756097577" y="69.25770653514184"/>
                            <mxPoint x="4.255219512195149" y="66.76325524044388"/>
                            <mxPoint x="2.0542439024389982" y="61.92108508014796"/>
                            <mxPoint x="1.1738536585365704" y="58.98643649815043"/>
                            <mxPoint x="0.5869268292682852" y="55.90505548705306"/>
                            <mxPoint y="50.03575832305794"/>
                        </Array>
                    </mxGeometry>
                </mxCell>
                <mxCell id="437" value="" style="whiteSpace=wrap;html=1;aspect=fixed;rounded=1;fontFamily=Lucida Console;fontColor=default;fontSize=12;strokeWidth=5;" parent="429" vertex="1">
                    <mxGeometry x="40.476616175760434" y="59.3202416918429" width="2.8759628328229936" height="2.8759628328229936" as="geometry"/>
                </mxCell>
                <mxCell id="439" value="" style="whiteSpace=wrap;html=1;aspect=fixed;rounded=1;fontFamily=Lucida Console;fontColor=default;fontSize=12;strokeWidth=5;" parent="429" vertex="1">
                    <mxGeometry x="74.6300727810397" y="104.97885196374621" width="2.8759628328229936" height="2.8759628328229936" as="geometry"/>
                </mxCell>
                <mxCell id="442" value="" style="endArrow=none;html=1;fontFamily=Lucida Console;fontSize=12;fontColor=default;startSize=10;endSize=7;exitX=0.25;exitY=0;exitDx=0;exitDy=0;" parent="429" source="439" target="437" edge="1">
                    <mxGeometry width="50" height="50" relative="1" as="geometry">
                        <mxPoint x="29.691314089882766" y="80.17220543806647" as="sourcePoint"/>
                        <mxPoint x="48.38583770540405" y="68.667673716012" as="targetPoint"/>
                    </mxGeometry>
                </mxCell>
                <mxCell id="440" value="" style="whiteSpace=wrap;html=1;aspect=fixed;rounded=1;fontFamily=Lucida Console;fontColor=default;fontSize=12;strokeWidth=5;" parent="443" vertex="1">
                    <mxGeometry x="19.625032143063613" y="72.26283987915409" width="2.8759628328229936" height="2.8759628328229936" as="geometry"/>
                </mxCell>
                <mxCell id="441" value="" style="endArrow=none;html=1;fontFamily=Lucida Console;fontSize=12;fontColor=default;startSize=10;endSize=7;entryX=0;entryY=0.5;entryDx=0;entryDy=0;exitX=0.75;exitY=0;exitDx=0;exitDy=0;" parent="443" edge="1">
                    <mxGeometry width="50" height="50" relative="1" as="geometry">
                        <mxPoint x="22.50111269929766" y="72.98187311178255" as="sourcePoint"/>
                        <mxPoint x="41.19563631481895" y="61.47734138972801" as="targetPoint"/>
                    </mxGeometry>
                </mxCell>
                <mxCell id="349" value="&lt;div data-darkreader-inline-bgcolor=&quot;&quot; data-darkreader-inline-color=&quot;&quot; style=&quot;font-family: &amp;quot;Droid Sans Mono&amp;quot;, &amp;quot;monospace&amp;quot;, monospace, &amp;quot;UbuntuMono Nerd Font&amp;quot;, Consolas, &amp;quot;Courier New&amp;quot;, monospace; font-weight: normal; font-size: 14px; line-height: 19px; --darkreader-inline-color: #d7d4cf; --darkreader-inline-bgcolor: #1d2125;&quot;&gt;&lt;div style=&quot;&quot;&gt;&lt;div style=&quot;line-height: 19px;&quot;&gt;&lt;br&gt;&lt;/div&gt;&lt;/div&gt;&lt;/div&gt;" style="rounded=1;whiteSpace=wrap;html=1;fillColor=none;labelBackgroundColor=none;fontColor=default;arcSize=2;align=center;verticalAlign=top;dashed=1;dashPattern=8 8;" parent="445" vertex="1">
                    <mxGeometry y="33" width="354" height="337" as="geometry"/>
                </mxCell>
                <mxCell id="356" value="&lt;div data-darkreader-inline-bgcolor=&quot;&quot; data-darkreader-inline-color=&quot;&quot; style=&quot;font-family: &amp;quot;Droid Sans Mono&amp;quot;, &amp;quot;monospace&amp;quot;, monospace, &amp;quot;UbuntuMono Nerd Font&amp;quot;, Consolas, &amp;quot;Courier New&amp;quot;, monospace; font-weight: normal; font-size: 14px; line-height: 19px; --darkreader-inline-color: #d7d4cf; --darkreader-inline-bgcolor: #1d2125;&quot;&gt;&lt;div style=&quot;&quot;&gt;&lt;div style=&quot;line-height: 19px;&quot;&gt;struct ChainSawData&lt;/div&gt;&lt;/div&gt;&lt;/div&gt;" style="rounded=1;whiteSpace=wrap;html=1;fillColor=none;labelBackgroundColor=none;fontColor=default;arcSize=13;" parent="445" vertex="1">
                    <mxGeometry x="11.0625" y="77" width="331.875" height="28" as="geometry"/>
                </mxCell>
                <mxCell id="357" value="&lt;span style=&quot;font-family: &amp;quot;Droid Sans Mono&amp;quot;, &amp;quot;monospace&amp;quot;, monospace, &amp;quot;UbuntuMono Nerd Font&amp;quot;, Consolas, &amp;quot;Courier New&amp;quot;, monospace; font-size: 14px;&quot;&gt;struct CircularSawData&lt;/span&gt;" style="swimlane;fontStyle=0;childLayout=stackLayout;horizontal=1;startSize=30;horizontalStack=0;resizeParent=1;resizeParentMax=0;resizeLast=0;collapsible=1;marginBottom=0;whiteSpace=wrap;html=1;fontColor=default;rounded=1;arcSize=4;swimlaneLine=1;" parent="445" vertex="1">
                    <mxGeometry x="12.4453125" y="113" width="330.49" height="247" as="geometry">
                        <mxRectangle x="878" y="661" width="54" height="30" as="alternateBounds"/>
                    </mxGeometry>
                </mxCell>
                <mxCell id="360" value="+&amp;nbsp;&lt;span style=&quot;font-family: &amp;quot;Droid Sans Mono&amp;quot;, &amp;quot;monospace&amp;quot;, monospace, &amp;quot;UbuntuMono Nerd Font&amp;quot;, Consolas, &amp;quot;Courier New&amp;quot;, monospace; font-size: 14px; text-align: center;&quot;&gt;std::shared_ptr&amp;lt;GOPoint&amp;gt; CenterGO&lt;/span&gt;" style="text;strokeColor=none;fillColor=none;align=left;verticalAlign=middle;spacingLeft=4;spacingRight=4;overflow=hidden;points=[[0,0.5],[1,0.5]];portConstraint=eastwest;rotatable=0;whiteSpace=wrap;html=1;fontColor=default;" parent="357" vertex="1">
                    <mxGeometry y="30" width="330.49" height="30" as="geometry"/>
                </mxCell>
                <mxCell id="359" value="+&amp;nbsp;&lt;span style=&quot;font-family: &amp;quot;Droid Sans Mono&amp;quot;, &amp;quot;monospace&amp;quot;, monospace, &amp;quot;UbuntuMono Nerd Font&amp;quot;, Consolas, &amp;quot;Courier New&amp;quot;, monospace; font-size: 14px; text-align: center;&quot;&gt;std::shared_ptr&amp;lt;GOPoint&amp;gt; NormStartGO&lt;/span&gt;" style="text;strokeColor=none;fillColor=none;align=left;verticalAlign=middle;spacingLeft=4;spacingRight=4;overflow=hidden;points=[[0,0.5],[1,0.5]];portConstraint=eastwest;rotatable=0;whiteSpace=wrap;html=1;fontColor=default;" parent="357" vertex="1">
                    <mxGeometry y="60" width="330.49" height="30" as="geometry"/>
                </mxCell>
                <mxCell id="361" value="+&amp;nbsp;&lt;span style=&quot;font-family: &amp;quot;Droid Sans Mono&amp;quot;, &amp;quot;monospace&amp;quot;, monospace, &amp;quot;UbuntuMono Nerd Font&amp;quot;, Consolas, &amp;quot;Courier New&amp;quot;, monospace; font-size: 14px; text-align: center;&quot;&gt;std::shared_ptr&amp;lt;GOPoint&amp;gt; NormEndGO&lt;/span&gt;" style="text;strokeColor=none;fillColor=none;align=left;verticalAlign=top;spacingLeft=4;spacingRight=4;overflow=hidden;points=[[0,0.5],[1,0.5]];portConstraint=eastwest;rotatable=0;whiteSpace=wrap;html=1;fontColor=default;" parent="357" vertex="1">
                    <mxGeometry y="90" width="330.49" height="157" as="geometry"/>
                </mxCell>
                <mxCell id="363" value="&lt;div data-darkreader-inline-bgcolor=&quot;&quot; data-darkreader-inline-color=&quot;&quot; style=&quot;font-family: &amp;quot;Droid Sans Mono&amp;quot;, &amp;quot;monospace&amp;quot;, monospace, &amp;quot;UbuntuMono Nerd Font&amp;quot;, Consolas, &amp;quot;Courier New&amp;quot;, monospace; font-weight: normal; font-size: 14px; line-height: 19px; --darkreader-inline-color: #d7d4cf; --darkreader-inline-bgcolor: #1d2125;&quot;&gt;&lt;div style=&quot;&quot;&gt;&lt;div style=&quot;line-height: 19px;&quot;&gt;struct DrillBitData&lt;/div&gt;&lt;/div&gt;&lt;/div&gt;" style="rounded=1;whiteSpace=wrap;html=1;fillColor=none;labelBackgroundColor=none;fontColor=default;" parent="445" vertex="1">
                    <mxGeometry x="11.0625" y="42" width="331.875" height="28" as="geometry"/>
                </mxCell>
                <mxCell id="364" value="&lt;font style=&quot;font-size: 14px;&quot;&gt;class ToolHeadData&lt;/font&gt;" style="text;html=1;strokeColor=none;fillColor=none;align=center;verticalAlign=middle;whiteSpace=wrap;rounded=0;fontSize=13;fontColor=default;" parent="445" vertex="1">
                    <mxGeometry x="96.796875" width="160.40625" height="33" as="geometry"/>
                </mxCell>
                <mxCell id="446" value="" style="group" parent="1" vertex="1" connectable="0">
                    <mxGeometry x="53" y="107" width="158" height="194" as="geometry"/>
                </mxCell>
                <mxCell id="401" value="&lt;span style=&quot;font-family: &amp;quot;Droid Sans Mono&amp;quot;, &amp;quot;monospace&amp;quot;, monospace, &amp;quot;UbuntuMono Nerd Font&amp;quot;, Consolas, &amp;quot;Courier New&amp;quot;, monospace; font-size: 14px;&quot;&gt;class Face&lt;/span&gt;" style="swimlane;fontStyle=0;childLayout=stackLayout;horizontal=1;startSize=30;horizontalStack=0;resizeParent=1;resizeParentMax=0;resizeLast=0;collapsible=1;marginBottom=0;whiteSpace=wrap;html=1;fontColor=default;rounded=1;arcSize=4;swimlaneLine=1;" parent="446" vertex="1">
                    <mxGeometry width="158" height="194" as="geometry">
                        <mxRectangle x="878" y="661" width="54" height="30" as="alternateBounds"/>
                    </mxGeometry>
                </mxCell>
                <mxCell id="402" value="&lt;div style=&quot;text-align: center;&quot;&gt;&lt;span style=&quot;background-color: initial;&quot;&gt;+ &lt;font face=&quot;Droid Sans Mono, monospace, monospace, UbuntuMono Nerd Font, Consolas, Courier New, monospace&quot;&gt;&lt;span style=&quot;font-size: 14px;&quot;&gt;GOs GetCenter()&lt;/span&gt;&lt;/font&gt;&lt;/span&gt;&lt;/div&gt;" style="text;strokeColor=none;fillColor=none;align=left;verticalAlign=middle;spacingLeft=4;spacingRight=4;overflow=hidden;points=[[0,0.5],[1,0.5]];portConstraint=eastwest;rotatable=0;whiteSpace=wrap;html=1;fontColor=default;" parent="401" vertex="1">
                    <mxGeometry y="30" width="158" height="30" as="geometry"/>
                </mxCell>
                <mxCell id="414" value="&lt;span style=&quot;text-align: center;&quot;&gt;+&amp;nbsp;&lt;/span&gt;&lt;font style=&quot;text-align: center;&quot; face=&quot;Droid Sans Mono, monospace, monospace, UbuntuMono Nerd Font, Consolas, Courier New, monospace&quot;&gt;&lt;span style=&quot;font-size: 14px;&quot;&gt;GOs GetEdges()&lt;/span&gt;&lt;/font&gt;" style="text;strokeColor=none;fillColor=none;align=left;verticalAlign=middle;spacingLeft=4;spacingRight=4;overflow=hidden;points=[[0,0.5],[1,0.5]];portConstraint=eastwest;rotatable=0;whiteSpace=wrap;html=1;fontColor=default;" parent="401" vertex="1">
                    <mxGeometry y="60" width="158" height="30" as="geometry"/>
                </mxCell>
                <mxCell id="415" value="&lt;span style=&quot;text-align: center;&quot;&gt;+&amp;nbsp;&lt;/span&gt;&lt;font style=&quot;text-align: center;&quot; face=&quot;Droid Sans Mono, monospace, monospace, UbuntuMono Nerd Font, Consolas, Courier New, monospace&quot;&gt;&lt;span style=&quot;font-size: 14px;&quot;&gt;GOs GetCorners()&lt;/span&gt;&lt;/font&gt;" style="text;strokeColor=none;fillColor=none;align=left;verticalAlign=top;spacingLeft=4;spacingRight=4;overflow=hidden;points=[[0,0.5],[1,0.5]];portConstraint=eastwest;rotatable=0;whiteSpace=wrap;html=1;fontColor=default;" parent="401" vertex="1">
                    <mxGeometry y="90" width="158" height="104" as="geometry"/>
                </mxCell>
                <mxCell id="444" value="" style="group" parent="446" vertex="1" connectable="0">
                    <mxGeometry x="47.5" y="123" width="64.24" height="63" as="geometry"/>
                </mxCell>
                <mxCell id="419" value="" style="html=1;whiteSpace=wrap;shape=isoCube2;backgroundOutline=1;isoAngle=11.574777930673957;fontSize=11;container=0;fontColor=default;fillColor=none;" parent="444" vertex="1">
                    <mxGeometry x="2.072258064516129" y="1.6578947368421053" width="59.70589935483871" height="60.098684210526315" as="geometry"/>
                </mxCell>
                <mxCell id="430" value="" style="whiteSpace=wrap;html=1;aspect=fixed;rounded=1;fontFamily=Lucida Console;fontColor=default;fontSize=12;strokeWidth=5;" parent="444" vertex="1">
                    <mxGeometry y="11.19078947368421" width="3.3156129032258064" height="3.3156129032258064" as="geometry"/>
                </mxCell>
                <mxCell id="431" value="" style="whiteSpace=wrap;html=1;aspect=fixed;rounded=1;fontFamily=Lucida Console;fontColor=default;fontSize=12;strokeWidth=5;" parent="444" vertex="1">
                    <mxGeometry y="48.90789473684211" width="3.3156129032258064" height="3.3156129032258064" as="geometry"/>
                </mxCell>
                <mxCell id="432" value="" style="whiteSpace=wrap;html=1;aspect=fixed;rounded=1;fontFamily=Lucida Console;fontColor=default;fontSize=12;strokeWidth=5;" parent="444" vertex="1">
                    <mxGeometry x="30.26325677419354" y="21.138157894736842" width="3.3156129032258064" height="3.3156129032258064" as="geometry"/>
                </mxCell>
                <mxCell id="433" value="" style="whiteSpace=wrap;html=1;aspect=fixed;rounded=1;fontFamily=Lucida Console;fontColor=default;fontSize=12;strokeWidth=5;" parent="444" vertex="1">
                    <mxGeometry x="30.26325677419354" width="3.3156129032258064" height="3.3156129032258064" as="geometry"/>
                </mxCell>
                <mxCell id="434" value="" style="whiteSpace=wrap;html=1;aspect=fixed;rounded=1;fontFamily=Lucida Console;fontColor=default;fontSize=12;strokeWidth=5;" parent="444" vertex="1">
                    <mxGeometry x="60.92438709677419" y="9.947368421052632" width="3.3156129032258064" height="3.3156129032258064" as="geometry"/>
                </mxCell>
                <mxCell id="435" value="" style="whiteSpace=wrap;html=1;aspect=fixed;rounded=1;fontFamily=Lucida Console;fontColor=default;fontSize=12;strokeWidth=5;" parent="444" vertex="1">
                    <mxGeometry x="60.92438709677419" y="48.90789473684211" width="3.3156129032258064" height="3.3156129032258064" as="geometry"/>
                </mxCell>
                <mxCell id="436" value="" style="whiteSpace=wrap;html=1;aspect=fixed;rounded=1;fontFamily=Lucida Console;fontColor=default;fontSize=12;strokeWidth=5;" parent="444" vertex="1">
                    <mxGeometry x="30.26325677419354" y="59.684210526315795" width="3.3156129032258064" height="3.3156129032258064" as="geometry"/>
                </mxCell>
                <mxCell id="448" value="LayerFeedback.h/cpp" style="verticalAlign=top;align=left;spacingTop=8;spacingLeft=2;spacingRight=12;shape=cube;size=10;direction=south;fontStyle=4;html=1;rounded=0;shadow=0;comic=0;labelBackgroundColor=none;strokeWidth=1;fontFamily=Verdana;fontSize=12;fillColor=none;fontColor=default;" vertex="1" parent="1">
                    <mxGeometry x="800" y="33" width="720" height="511" as="geometry"/>
                </mxCell>
                <mxCell id="450" value="&lt;span style=&quot;font-family: &amp;quot;Droid Sans Mono&amp;quot;, &amp;quot;monospace&amp;quot;, monospace, &amp;quot;UbuntuMono Nerd Font&amp;quot;, Consolas, &amp;quot;Courier New&amp;quot;, monospace; font-size: 14px;&quot;&gt;class CutCircularSawFeedback&lt;/span&gt;" style="swimlane;fontStyle=0;childLayout=stackLayout;horizontal=1;startSize=30;horizontalStack=0;resizeParent=1;resizeParentMax=0;resizeLast=0;collapsible=1;marginBottom=0;whiteSpace=wrap;html=1;fontColor=default;rounded=1;arcSize=4;swimlaneLine=1;" vertex="1" parent="1">
                    <mxGeometry x="903.81" y="160" width="330.49" height="355" as="geometry">
                        <mxRectangle x="878" y="661" width="54" height="30" as="alternateBounds"/>
                    </mxGeometry>
                </mxCell>
                <mxCell id="451" value="+&amp;nbsp;&lt;span style=&quot;font-family: &amp;quot;Droid Sans Mono&amp;quot;, &amp;quot;monospace&amp;quot;, monospace, &amp;quot;UbuntuMono Nerd Font&amp;quot;, Consolas, &amp;quot;Courier New&amp;quot;, monospace; font-size: 14px; text-align: center;&quot;&gt;Update() override&lt;/span&gt;" style="text;strokeColor=none;fillColor=none;align=left;verticalAlign=middle;spacingLeft=4;spacingRight=4;overflow=hidden;points=[[0,0.5],[1,0.5]];portConstraint=eastwest;rotatable=0;whiteSpace=wrap;html=1;fontColor=default;" vertex="1" parent="450">
                    <mxGeometry y="30" width="330.49" height="30" as="geometry"/>
                </mxCell>
                <mxCell id="458" value="+&amp;nbsp;&lt;span style=&quot;font-family: &amp;quot;Droid Sans Mono&amp;quot;, &amp;quot;monospace&amp;quot;, monospace, &amp;quot;UbuntuMono Nerd Font&amp;quot;, Consolas, &amp;quot;Courier New&amp;quot;, monospace; font-size: 14px; text-align: center;&quot;&gt;Activate() override&lt;/span&gt;" style="text;strokeColor=none;fillColor=none;align=left;verticalAlign=middle;spacingLeft=4;spacingRight=4;overflow=hidden;points=[[0,0.5],[1,0.5]];portConstraint=eastwest;rotatable=0;whiteSpace=wrap;html=1;fontColor=default;" vertex="1" parent="450">
                    <mxGeometry y="60" width="330.49" height="30" as="geometry"/>
                </mxCell>
                <mxCell id="459" value="+&amp;nbsp;&lt;span style=&quot;font-family: &amp;quot;Droid Sans Mono&amp;quot;, &amp;quot;monospace&amp;quot;, monospace, &amp;quot;UbuntuMono Nerd Font&amp;quot;, Consolas, &amp;quot;Courier New&amp;quot;, monospace; font-size: 14px; text-align: center;&quot;&gt;Deactivate() override&lt;/span&gt;" style="text;strokeColor=none;fillColor=none;align=left;verticalAlign=middle;spacingLeft=4;spacingRight=4;overflow=hidden;points=[[0,0.5],[1,0.5]];portConstraint=eastwest;rotatable=0;whiteSpace=wrap;html=1;fontColor=default;" vertex="1" parent="450">
                    <mxGeometry y="90" width="330.49" height="30" as="geometry"/>
                </mxCell>
                <mxCell id="452" value="&lt;div style=&quot;text-align: center;&quot;&gt;&lt;span style=&quot;background-color: initial;&quot;&gt;- &lt;font face=&quot;Droid Sans Mono, monospace, monospace, UbuntuMono Nerd Font, Consolas, Courier New, monospace&quot;&gt;&lt;span style=&quot;font-size: 14px;&quot;&gt;CircularSawCutPlaneVisualizer&lt;/span&gt;&lt;/font&gt;&lt;/span&gt;&lt;/div&gt;" style="text;strokeColor=default;fillColor=none;align=left;verticalAlign=middle;spacingLeft=4;spacingRight=4;overflow=hidden;points=[[0,0.5],[1,0.5]];portConstraint=eastwest;rotatable=0;whiteSpace=wrap;html=1;fontColor=default;" vertex="1" parent="450">
                    <mxGeometry y="120" width="330.49" height="30" as="geometry"/>
                </mxCell>
                <mxCell id="455" value="&lt;span style=&quot;text-align: center;&quot;&gt;-&amp;nbsp;&lt;/span&gt;&lt;font style=&quot;text-align: center;&quot; face=&quot;Droid Sans Mono, monospace, monospace, UbuntuMono Nerd Font, Consolas, Courier New, monospace&quot;&gt;&lt;span style=&quot;font-size: 14px;&quot;&gt;CutCircularOrientationVisualizer&lt;/span&gt;&lt;/font&gt;" style="text;strokeColor=default;fillColor=none;align=left;verticalAlign=middle;spacingLeft=4;spacingRight=4;overflow=hidden;points=[[0,0.5],[1,0.5]];portConstraint=eastwest;rotatable=0;whiteSpace=wrap;html=1;fontColor=default;" vertex="1" parent="450">
                    <mxGeometry y="150" width="330.49" height="30" as="geometry"/>
                </mxCell>
                <mxCell id="456" value="&lt;span style=&quot;text-align: center;&quot;&gt;-&amp;nbsp;&lt;/span&gt;&lt;font style=&quot;text-align: center;&quot; face=&quot;Droid Sans Mono, monospace, monospace, UbuntuMono Nerd Font, Consolas, Courier New, monospace&quot;&gt;&lt;span style=&quot;font-size: 14px;&quot;&gt;CircularSawPositionStartVisualizer&lt;/span&gt;&lt;/font&gt;" style="text;strokeColor=default;fillColor=none;align=left;verticalAlign=middle;spacingLeft=4;spacingRight=4;overflow=hidden;points=[[0,0.5],[1,0.5]];portConstraint=eastwest;rotatable=0;whiteSpace=wrap;html=1;fontColor=default;" vertex="1" parent="450">
                    <mxGeometry y="180" width="330.49" height="30" as="geometry"/>
                </mxCell>
                <mxCell id="457" value="&lt;span style=&quot;text-align: center;&quot;&gt;-&amp;nbsp;&lt;/span&gt;&lt;font style=&quot;text-align: center;&quot; face=&quot;Droid Sans Mono, monospace, monospace, UbuntuMono Nerd Font, Consolas, Courier New, monospace&quot;&gt;&lt;span style=&quot;font-size: 14px;&quot;&gt;CircularSawCutPlaneVisualizer&lt;/span&gt;&lt;/font&gt;" style="text;strokeColor=default;fillColor=none;align=left;verticalAlign=middle;spacingLeft=4;spacingRight=4;overflow=hidden;points=[[0,0.5],[1,0.5]];portConstraint=eastwest;rotatable=0;whiteSpace=wrap;html=1;fontColor=default;" vertex="1" parent="450">
                    <mxGeometry y="210" width="330.49" height="30" as="geometry"/>
                </mxCell>
                <mxCell id="460" value="&lt;span style=&quot;text-align: center;&quot;&gt;-&amp;nbsp;&lt;/span&gt;&lt;font style=&quot;text-align: center;&quot; face=&quot;Droid Sans Mono, monospace, monospace, UbuntuMono Nerd Font, Consolas, Courier New, monospace&quot;&gt;&lt;span style=&quot;font-size: 14px;&quot;&gt;CircularSawThicknessVisualizer&lt;br&gt;&amp;nbsp; &amp;nbsp; + Update() override;&lt;br&gt;&amp;nbsp; &amp;nbsp; + Activate() override&lt;br&gt;&amp;nbsp; &amp;nbsp; + Deactivate() override&lt;br&gt;&lt;/span&gt;&lt;/font&gt;" style="text;strokeColor=default;fillColor=none;align=left;verticalAlign=top;spacingLeft=4;spacingRight=4;overflow=hidden;points=[[0,0.5],[1,0.5]];portConstraint=eastwest;rotatable=0;whiteSpace=wrap;html=1;fontColor=default;" vertex="1" parent="450">
                    <mxGeometry y="240" width="330.49" height="83" as="geometry"/>
                </mxCell>
                <mxCell id="479" value="- std::vector&amp;lt;GO&amp;gt; GOObjects" style="text;strokeColor=none;fillColor=none;align=center;verticalAlign=top;spacingLeft=4;spacingRight=4;overflow=hidden;points=[[0,0.5],[1,0.5]];portConstraint=eastwest;rotatable=0;whiteSpace=wrap;html=1;fontColor=default;" vertex="1" parent="450">
                    <mxGeometry y="323" width="330.49" height="32" as="geometry"/>
                </mxCell>
                <mxCell id="462" style="edgeStyle=orthogonalEdgeStyle;html=1;entryX=0;entryY=0.5;entryDx=0;entryDy=0;fontSize=14;fontColor=default;startArrow=none;startFill=0;endArrow=classic;endFill=1;exitX=0;exitY=0.5;exitDx=0;exitDy=0;strokeWidth=1;" edge="1" parent="450" source="451" target="452">
                    <mxGeometry relative="1" as="geometry">
                        <Array as="points">
                            <mxPoint x="-20" y="45"/>
                            <mxPoint x="-20" y="135"/>
                        </Array>
                        <mxPoint x="-28.3053124999999" y="67" as="sourcePoint"/>
                        <mxPoint x="-35.8053124999999" y="95.5" as="targetPoint"/>
                    </mxGeometry>
                </mxCell>
                <mxCell id="464" style="edgeStyle=orthogonalEdgeStyle;html=1;entryX=0;entryY=0.5;entryDx=0;entryDy=0;fontSize=14;fontColor=default;startArrow=none;startFill=0;endArrow=classic;endFill=1;exitX=0;exitY=0.5;exitDx=0;exitDy=0;strokeWidth=1;" edge="1" parent="450" source="451" target="455">
                    <mxGeometry relative="1" as="geometry">
                        <Array as="points">
                            <mxPoint x="-36" y="45"/>
                            <mxPoint x="-36" y="165"/>
                        </Array>
                        <mxPoint x="-42.7800000000002" y="55" as="sourcePoint"/>
                        <mxPoint x="-42.7800000000002" y="145" as="targetPoint"/>
                    </mxGeometry>
                </mxCell>
                <mxCell id="471" style="edgeStyle=orthogonalEdgeStyle;html=1;entryX=0;entryY=0.5;entryDx=0;entryDy=0;fontSize=14;fontColor=default;startArrow=none;startFill=0;endArrow=classic;endFill=1;exitX=0;exitY=0.5;exitDx=0;exitDy=0;strokeWidth=1;" edge="1" parent="450" source="451" target="456">
                    <mxGeometry relative="1" as="geometry">
                        <Array as="points">
                            <mxPoint x="-53" y="45"/>
                            <mxPoint x="-53" y="194"/>
                            <mxPoint y="194"/>
                        </Array>
                        <mxPoint x="1975.8053124999997" y="718.9999999999998" as="sourcePoint"/>
                        <mxPoint x="1975.8053124999997" y="839" as="targetPoint"/>
                    </mxGeometry>
                </mxCell>
                <mxCell id="472" style="edgeStyle=orthogonalEdgeStyle;html=1;entryX=0;entryY=0.5;entryDx=0;entryDy=0;fontSize=14;fontColor=default;startArrow=none;startFill=0;endArrow=classic;endFill=1;exitX=0;exitY=0.5;exitDx=0;exitDy=0;strokeWidth=1;" edge="1" parent="450" source="451" target="457">
                    <mxGeometry relative="1" as="geometry">
                        <Array as="points">
                            <mxPoint x="-70" y="45"/>
                            <mxPoint x="-70" y="225"/>
                        </Array>
                        <mxPoint x="1975.8053124999997" y="718.9999999999998" as="sourcePoint"/>
                        <mxPoint x="1975.8053124999997" y="868.9999999999998" as="targetPoint"/>
                    </mxGeometry>
                </mxCell>
                <mxCell id="473" style="edgeStyle=orthogonalEdgeStyle;html=1;entryX=-0.006;entryY=0.196;entryDx=0;entryDy=0;fontSize=14;fontColor=default;startArrow=none;startFill=0;endArrow=classic;endFill=1;exitX=0;exitY=0.5;exitDx=0;exitDy=0;strokeWidth=1;entryPerimeter=0;" edge="1" parent="450" source="451" target="460">
                    <mxGeometry relative="1" as="geometry">
                        <Array as="points">
                            <mxPoint x="-89" y="45"/>
                            <mxPoint x="-89" y="256"/>
                        </Array>
                        <mxPoint x="1975.8053124999997" y="719" as="sourcePoint"/>
                        <mxPoint x="1975.8053124999997" y="899" as="targetPoint"/>
                    </mxGeometry>
                </mxCell>
                <mxCell id="454" value="" style="group" vertex="1" connectable="0" parent="1">
                    <mxGeometry x="1261" y="152" width="190" height="119" as="geometry"/>
                </mxCell>
                <mxCell id="373" value="" style="rounded=0;whiteSpace=wrap;html=1;fontSize=14;labelBackgroundColor=none;arcSize=3;dashed=1;fontColor=default;" parent="454" vertex="1">
                    <mxGeometry y="2" width="190" height="112" as="geometry"/>
                </mxCell>
                <mxCell id="374" value="&lt;div style=&quot;font-family: &amp;quot;Droid Sans Mono&amp;quot;, &amp;quot;monospace&amp;quot;, monospace, &amp;quot;UbuntuMono Nerd Font&amp;quot;, Consolas, &amp;quot;Courier New&amp;quot;, monospace; font-weight: normal; font-size: 14px; line-height: 19px;&quot;&gt;&lt;div style=&quot;&quot;&gt;&lt;div&gt;virtual void&amp;nbsp;&lt;/div&gt;&lt;div&gt;Update() {};&lt;/div&gt;&lt;div&gt;Activate() {};&lt;/div&gt;&lt;div&gt;Deactivate() {};&lt;/div&gt;&lt;div&gt;&amp;nbsp; &amp;nbsp;&amp;nbsp;&lt;/div&gt;&lt;/div&gt;&lt;/div&gt;" style="text;whiteSpace=wrap;html=1;fontColor=default;" parent="454" vertex="1">
                    <mxGeometry x="6" y="26" width="165" height="93" as="geometry"/>
                </mxCell>
                <mxCell id="375" value="&lt;font style=&quot;font-size: 14px;&quot;&gt;FabFeedback.h (interface)&lt;/font&gt;" style="text;html=1;strokeColor=none;fillColor=none;align=left;verticalAlign=middle;whiteSpace=wrap;rounded=0;fontSize=13;fontColor=default;" parent="454" vertex="1">
                    <mxGeometry x="11.5" width="173.5" height="33" as="geometry"/>
                </mxCell>
                <mxCell id="465" value="" style="group" vertex="1" connectable="0" parent="1">
                    <mxGeometry x="1261" y="332" width="228" height="119" as="geometry"/>
                </mxCell>
                <mxCell id="466" value="" style="rounded=0;whiteSpace=wrap;html=1;fontSize=14;labelBackgroundColor=none;arcSize=3;dashed=1;fontColor=default;" vertex="1" parent="465">
                    <mxGeometry y="2" width="222" height="112" as="geometry"/>
                </mxCell>
                <mxCell id="467" value="&lt;div style=&quot;font-family: &amp;quot;Droid Sans Mono&amp;quot;, &amp;quot;monospace&amp;quot;, monospace, &amp;quot;UbuntuMono Nerd Font&amp;quot;, Consolas, &amp;quot;Courier New&amp;quot;, monospace; font-weight: normal; font-size: 14px; line-height: 19px;&quot;&gt;&lt;div style=&quot;&quot;&gt;&lt;div&gt;virtual void&amp;nbsp;&lt;/div&gt;&lt;div&gt;Update() {};&lt;/div&gt;&lt;div&gt;Activate() {};&lt;/div&gt;&lt;div&gt;Deactivate() {};&lt;/div&gt;&lt;div&gt;&amp;nbsp; &amp;nbsp;&amp;nbsp;&lt;/div&gt;&lt;/div&gt;&lt;/div&gt;" style="text;whiteSpace=wrap;html=1;fontColor=default;" vertex="1" parent="465">
                    <mxGeometry x="6" y="26" width="165" height="93" as="geometry"/>
                </mxCell>
                <mxCell id="468" value="&lt;font style=&quot;font-size: 14px;&quot;&gt;FeedbackVisualizer.h (interface)&lt;/font&gt;" style="text;html=1;strokeColor=none;fillColor=none;align=left;verticalAlign=middle;whiteSpace=wrap;rounded=0;fontSize=13;fontColor=default;" vertex="1" parent="465">
                    <mxGeometry x="11.5" y="6" width="206.5" height="27" as="geometry"/>
                </mxCell>
                <mxCell id="469" value="" style="endArrow=none;dashed=1;html=1;dashPattern=1 3;strokeWidth=2;fontSize=14;fontColor=default;entryX=1.004;entryY=0.067;entryDx=0;entryDy=0;entryPerimeter=0;exitX=1;exitY=0;exitDx=0;exitDy=0;" edge="1" parent="1" source="466" target="452">
                    <mxGeometry width="50" height="50" relative="1" as="geometry">
                        <mxPoint x="1489" y="314" as="sourcePoint"/>
                        <mxPoint x="1231.9953124999997" y="310.9999999999998" as="targetPoint"/>
                    </mxGeometry>
                </mxCell>
                <mxCell id="470" value="" style="endArrow=none;dashed=1;html=1;dashPattern=1 3;strokeWidth=2;fontSize=14;fontColor=default;entryX=0.999;entryY=1.005;entryDx=0;entryDy=0;entryPerimeter=0;exitX=1;exitY=1;exitDx=0;exitDy=0;" edge="1" parent="1" source="466" target="460">
                    <mxGeometry width="50" height="50" relative="1" as="geometry">
                        <mxPoint x="1515.38" y="567.9900000000005" as="sourcePoint"/>
                        <mxPoint x="1277.9972725000002" y="515.9999999999998" as="targetPoint"/>
                    </mxGeometry>
                </mxCell>
                <mxCell id="475" value="&lt;font style=&quot;font-size: 14px;&quot;&gt;AIAC/Feedback&lt;/font&gt;" style="text;html=1;strokeColor=none;fillColor=none;align=center;verticalAlign=middle;whiteSpace=wrap;rounded=0;fontSize=13;fontColor=default;" vertex="1" parent="1">
                    <mxGeometry x="1117.9968749999998" y="45" width="160.40625" height="33" as="geometry"/>
                </mxCell>
                <mxCell id="484" style="edgeStyle=none;html=1;entryX=1;entryY=0.5;entryDx=0;entryDy=0;strokeWidth=1;fontSize=16;startArrow=none;startFill=0;endArrow=classic;endFill=1;exitX=0;exitY=0;exitDx=24.5;exitDy=108.95;exitPerimeter=0;" edge="1" parent="1" source="476" target="326">
                    <mxGeometry relative="1" as="geometry">
                        <mxPoint x="1074.4027216713466" y="653" as="sourcePoint"/>
                        <mxPoint x="1074.2328591749647" y="698.8272727272729" as="targetPoint"/>
                    </mxGeometry>
                </mxCell>
                <mxCell id="476" value="Render.h" style="verticalAlign=top;align=center;spacingTop=8;spacingLeft=2;spacingRight=12;shape=cube;size=10;direction=south;fontStyle=4;html=1;rounded=0;shadow=0;comic=0;labelBackgroundColor=none;strokeWidth=1;fontFamily=Verdana;fontSize=12;fillColor=none;fontColor=default;" vertex="1" parent="1">
                    <mxGeometry x="1055" y="614" width="108.95" height="39" as="geometry"/>
                </mxCell>
                <mxCell id="477" style="edgeStyle=orthogonalEdgeStyle;html=1;entryX=0;entryY=0.069;entryDx=0;entryDy=0;fontSize=14;fontColor=default;startArrow=none;startFill=0;endArrow=classic;endFill=1;exitX=1;exitY=0.25;exitDx=0;exitDy=0;strokeWidth=1;entryPerimeter=0;" edge="1" parent="1" source="350" target="450">
                    <mxGeometry relative="1" as="geometry">
                        <Array as="points">
                            <mxPoint x="781" y="343"/>
                            <mxPoint x="781" y="184"/>
                            <mxPoint x="904" y="184"/>
                        </Array>
                        <mxPoint x="3154.6106249999993" y="1239" as="sourcePoint"/>
                        <mxPoint x="3152.6276849999995" y="1450.268" as="targetPoint"/>
                    </mxGeometry>
                </mxCell>
                <mxCell id="481" style="edgeStyle=none;html=1;entryX=0;entryY=0;entryDx=0;entryDy=47;entryPerimeter=0;strokeWidth=1;fontSize=17;" edge="1" parent="1" source="478" target="476">
                    <mxGeometry relative="1" as="geometry"/>
                </mxCell>
                <mxCell id="482" style="edgeStyle=none;html=1;entryX=0.515;entryY=1.086;entryDx=0;entryDy=0;entryPerimeter=0;strokeWidth=1;fontSize=17;startArrow=classic;startFill=1;endArrow=none;endFill=0;" edge="1" parent="1" source="478">
                    <mxGeometry relative="1" as="geometry">
                        <mxPoint x="1117.0123499999995" y="517.752" as="targetPoint"/>
                    </mxGeometry>
                </mxCell>
                <mxCell id="478" value="&lt;font style=&quot;font-size: 14px;&quot;&gt;GORegistry&lt;/font&gt;" style="text;html=1;strokeColor=none;fillColor=none;align=center;verticalAlign=middle;whiteSpace=wrap;rounded=0;fontSize=13;fontColor=default;" vertex="1" parent="1">
                    <mxGeometry x="1036.9968749999998" y="560" width="160.40625" height="33" as="geometry"/>
                </mxCell>
                <mxCell id="483" style="edgeStyle=orthogonalEdgeStyle;html=1;fontSize=14;fontColor=default;startArrow=none;startFill=0;endArrow=classic;endFill=1;exitX=1;exitY=0.25;exitDx=0;exitDy=0;strokeWidth=1;entryX=-0.002;entryY=0.025;entryDx=0;entryDy=0;entryPerimeter=0;" edge="1" parent="1" source="379" target="450">
                    <mxGeometry relative="1" as="geometry">
                        <Array as="points">
                            <mxPoint x="740" y="256"/>
                            <mxPoint x="762" y="256"/>
                            <mxPoint x="762" y="169"/>
                            <mxPoint x="903" y="169"/>
                        </Array>
                        <mxPoint x="753.7459999999996" y="369.16999999999996" as="sourcePoint"/>
                        <mxPoint x="1091" y="499" as="targetPoint"/>
                    </mxGeometry>
                </mxCell>
            </root>
        </mxGraphModel>
    </diagram>
</mxfile>